<svg width="687" height="510" viewBox="0 0 687 510" fill="none" xmlns="http://www.w3.org/2000/svg">
<path opacity="0.2" d="M686.88 125.854C686.832 126.921 686.767 128.002 686.685 129.033C685.985 138.305 684.118 147.393 681.149 155.982C671.183 184.621 651.293 206.408 630.042 223.907L628.699 225.002C624.855 228.131 620.946 231.152 617.013 234.109L616.699 234.346L616.463 234.525L615.747 235.054C615.185 235.484 614.617 235.899 614.055 236.322L613.115 237.038L608.797 240.217L604.994 242.987C602.593 244.739 600.19 246.493 597.785 248.25C589.765 254.092 581.786 260.02 574.068 266.414L572.885 267.416C572.293 267.882 571.767 268.354 571.217 268.848C568.319 271.311 565.468 273.858 562.665 276.488C562.115 276.996 561.565 277.519 561.021 278.056C555.455 283.454 550.085 289.597 546.051 296.585C542.627 302.535 540.178 309.093 539.445 316.339C538.262 327.795 541.515 338.842 546.051 349.632C548.973 356.57 552.439 363.407 555.615 370.209C556.65 372.436 557.655 374.655 558.572 376.875C560.281 380.788 561.757 384.844 562.99 389.011C565.521 397.896 566.261 406.803 563.351 415.881C560.163 425.84 553.71 432.22 546.022 437.36C541.881 440.117 537.428 442.508 532.909 444.914C526.451 448.336 519.897 451.787 514.178 456.291C513.815 456.568 513.461 456.854 513.114 457.15C512.368 457.756 511.639 458.389 510.925 459.047C509.742 460.136 508.607 461.295 507.507 462.498C506.856 463.219 506.217 463.959 505.59 464.718C505.094 465.305 504.597 465.913 504.112 466.536C503.177 467.718 502.267 468.935 501.373 470.166L500.67 471.154C500.015 472.109 499.365 473.049 498.718 473.975C497.878 475.207 497.056 476.453 496.234 477.706C495.051 479.496 493.868 481.285 492.721 483.075C492.378 483.591 492.04 484.099 491.709 484.615C489.781 487.479 487.847 490.343 485.795 492.992L485.552 493.307C480.691 499.607 475.314 504.934 468.537 507.784C452.195 514.657 436.007 504.404 420.304 493.464L419.867 493.149L419.671 493.013L418.323 492.068L417.69 491.624C416.087 490.493 414.484 489.362 412.888 488.259L412.503 487.987C410.25 486.433 408.014 484.923 405.79 483.498C404.45 482.639 403.095 481.818 401.727 481.035C397.206 478.409 392.547 476.147 387.781 474.262C381.557 471.781 375.175 469.92 368.701 468.699C366.067 468.188 363.419 467.789 360.758 467.503C359.043 467.317 357.315 467.166 355.588 467.066C341.583 466.201 327.56 468.265 314.134 473.166C312.307 473.839 310.485 474.598 308.687 475.357C308.35 475.493 308.019 475.644 307.693 475.787C306.026 476.503 304.375 477.312 302.743 478.149L302.152 478.443C302.125 478.468 302.095 478.487 302.063 478.5C293.641 482.882 285.502 488.474 277.11 492.856C276.365 493.242 275.619 493.622 274.862 493.994C269.642 496.663 264.16 498.506 258.55 499.478C252.763 500.31 246.907 500.131 241.162 498.949C235.98 497.897 230.859 496.443 225.832 494.595H225.778L225.459 494.474C224.992 494.309 224.519 494.144 224.051 493.965L223.424 493.743L222.602 493.436C210.773 489.054 198.915 483.856 186.719 482.431C186.128 482.367 185.537 482.302 184.945 482.252C181.165 481.942 177.371 481.975 173.595 482.352C162.263 483.412 150.99 487.121 139.777 491.023L139.079 491.259C138.487 491.474 137.86 491.681 137.251 491.903L135.932 492.362L133.371 493.249L132.78 493.45C114.291 499.894 95.992 505.399 77.9234 499.02C70.0039 496.221 62.8948 491.338 56.383 485.273C51.7216 480.872 47.3404 476.051 43.2766 470.854C39.4618 466.049 35.8244 461.016 32.2994 455.997C20.5533 439.272 8.9492 421.523 3.83321 400.466C2.09579 393.011 1.0231 385.351 0.633501 377.619C0.361437 372.923 0.266806 368.197 0.27272 363.465C0.27272 360.319 0.310178 357.181 0.385095 354.049C0.426496 351.765 0.491555 349.489 0.544785 347.212C0.544785 346.854 0.544785 346.496 0.544785 346.116C0.580271 345.057 0.603929 343.968 0.627586 342.937C1.13623 323.172 1.64093 303.404 2.14168 283.633C2.47881 270.459 2.83959 257.078 6.19899 244.541C6.58343 243.109 7.01518 241.677 7.47059 240.245C7.81954 239.171 8.19215 238.097 8.57068 237.066C16.0465 216.725 30.4541 200.007 43.2529 182.91C47.9471 176.78 52.3242 170.304 56.3593 163.521C62.4689 152.953 66.887 141.741 67.8629 129.076C67.9457 128.023 68.0049 126.971 68.0344 125.897C68.064 124.823 68.0699 123.749 68.0344 122.61C67.721 104.267 59.6537 86.6756 56.3416 69.0268C54.8512 61.1511 54.3129 53.2181 55.8566 45.2206C55.9986 44.4545 56.1642 43.7099 56.3416 42.9725C62.1082 19.1734 84.5889 6.68683 105.106 2.64157C126.398 -1.54689 148.086 -0.336889 169.349 3.35754C170.752 3.60098 172.152 3.8635 173.548 4.14512C177.948 5.01145 182.313 6.03529 186.66 7.13789C197.206 9.80848 207.651 12.9516 218.243 15.5506C231.817 18.887 244.101 15.701 257.639 13.4027C264.559 12.2285 271.511 11.4123 278.494 10.954C284.306 10.5674 290.124 10.429 295.947 10.5388C319.398 10.9446 342.68 15.4196 365.081 23.8273C380.133 29.505 394.955 37.0012 410.256 41.0894C415.485 42.5299 420.801 43.4613 426.154 43.8746C426.574 43.9175 426.999 43.9462 427.425 43.9677C463.645 45.9151 496.932 19.7247 532.892 14.8132L534.104 14.6556C538.057 14.1608 542.029 13.9218 546.004 13.9397C579.527 14.1187 612.033 31.5741 642.823 48.7933C652.203 54.0343 661.749 59.4256 669.373 67.8598C682.479 82.3583 687.897 104.196 686.88 125.854Z" fill="#2E8544"/>
<rect width="439.178" height="355.885" transform="translate(83.5093 74.4227)" fill="#2E8544"/>
<path d="M522.849 75.828H83.3296V421.195H522.849V75.828Z" fill="#1E2E5C"/>
<path opacity="0.8" d="M166.752 276.093H142.816L132.428 258.505H123.372V130.591H166.752V276.093Z" fill="url(#paint0_linear_255_2)"/>
<path opacity="0.3" d="M294.508 291.282H181.13L162.752 273.694H146.731V145.781H223.48L294.508 291.282Z" fill="url(#paint1_linear_255_2)"/>
<path opacity="0.4" d="M140.534 255.392C140.534 255.786 140.152 256.106 139.681 256.106H120.888C120.417 256.106 120.035 255.786 120.035 255.392V249.226C120.035 248.832 120.417 248.511 120.888 248.511H139.681C140.152 248.511 140.534 248.832 140.534 249.226V255.392Z" fill="#39335D"/>
<path d="M151.975 245.798C151.975 246.193 151.593 246.513 151.122 246.513H132.329C131.858 246.513 131.476 246.193 131.476 245.798V239.633C131.476 239.238 131.858 238.918 132.329 238.918H151.122C151.593 238.918 151.975 239.238 151.975 239.633V245.798Z" fill="#34285E"/>
<path opacity="0.7" d="M164.369 255.392C164.369 255.786 163.987 256.106 163.516 256.106H144.723C144.253 256.106 143.871 255.786 143.871 255.392V249.226C143.871 248.832 144.253 248.511 144.723 248.511H163.516C163.987 248.511 164.369 248.832 164.369 249.226V255.392Z" fill="#39335D"/>
<path d="M205.842 266.984C205.842 267.378 205.46 267.698 204.989 267.698H186.196C185.725 267.698 185.343 267.378 185.343 266.984V260.818C185.343 260.424 185.725 260.104 186.196 260.104H204.989C205.46 260.104 205.842 260.424 205.842 260.818V266.984Z" fill="#34285E"/>
<path opacity="0.7" d="M217.283 257.39C217.283 257.785 216.901 258.105 216.43 258.105H197.637C197.166 258.105 196.784 257.785 196.784 257.39V251.225C196.784 250.83 197.166 250.51 197.637 250.51H216.43C216.901 250.51 217.283 250.83 217.283 251.225V257.39Z" fill="#39335D"/>
<path opacity="0.4" d="M229.677 266.984C229.677 267.378 229.295 267.698 228.824 267.698H210.032C209.561 267.698 209.179 267.378 209.179 266.984V260.818C209.179 260.424 209.561 260.104 210.032 260.104H228.824C229.295 260.104 229.677 260.424 229.677 260.818V266.984Z" fill="#39335D"/>
<path opacity="0.4" d="M253.989 237.803C253.989 238.198 253.607 238.518 253.136 238.518H234.343C233.872 238.518 233.49 238.198 233.49 237.803V231.638C233.49 231.243 233.872 230.923 234.343 230.923H253.136C253.607 230.923 253.989 231.243 253.989 231.638V237.803Z" fill="#39335D"/>
<path opacity="0.7" d="M277.824 237.803C277.824 238.198 277.442 238.518 276.971 238.518H258.178C257.707 238.518 257.325 238.198 257.325 237.803V231.638C257.325 231.243 257.707 230.923 258.178 230.923H276.971C277.442 230.923 277.824 231.243 277.824 231.638V237.803Z" fill="#39335D"/>
<path d="M519.988 67.8333H409.87V303.674H519.988V67.8333Z" fill="#39335D"/>
<path d="M519.988 67.8333H409.87V303.674H519.988V67.8333Z" fill="url(#paint2_linear_255_2)"/>
<path d="M476.501 305.076L409.87 303.674V67.8333L425.773 66.28L476.501 305.076Z" fill="url(#paint3_linear_255_2)"/>
<path d="M462.784 162.17L431.322 145.781V67.8333H462.784V162.17Z" fill="url(#paint4_linear_255_2)"/>
<path d="M472.795 214.534L441.333 198.145V120.198H472.795V214.534Z" fill="url(#paint5_linear_255_2)"/>
<path d="M117.722 301.109C117.722 301.109 151.328 287.32 169.918 286.12C188.509 284.921 226.404 259.74 270.021 258.541C313.637 257.341 412.309 282.523 412.309 282.523C412.309 282.523 263.585 328.09 252.86 329.289C242.135 330.488 117.722 301.109 117.722 301.109Z" fill="#39486C"/>
<path opacity="0.5" d="M95.9207 294.872V426.783H522.568V283.28C522.568 283.28 433.956 272.523 388.909 276.72C343.863 280.916 300.963 301.301 267.357 300.702C233.751 300.103 131.839 284.845 95.9207 294.872Z" fill="url(#paint6_linear_255_2)"/>
<path d="M95.9207 294.864V426.775H522.568V283.272C522.568 283.272 433.956 272.515 388.909 276.712C343.863 280.908 302.952 300.594 269.44 302.787C225.583 305.657 135.487 279.351 95.9207 294.864Z" fill="#34285E"/>
<path d="M95.9207 300.069V431.98H522.568V288.476C522.568 288.476 433.956 277.719 388.909 281.916C343.863 286.113 302.952 305.798 269.44 307.991C225.583 310.861 135.487 284.555 95.9207 300.069Z" fill="url(#paint7_linear_255_2)"/>
<path d="M96.1165 300.102V432.013H522.764V288.51C522.764 288.51 434.151 277.753 389.105 281.95C344.059 286.147 301.159 306.531 267.553 305.932C233.947 305.333 132.035 290.076 96.1165 300.102Z" fill="url(#paint8_linear_255_2)"/>
<path opacity="0.7" d="M387.455 324.528L321.208 337.664L280.145 357.337L240.641 368.031L240.856 373.227L169.671 370.762L179.785 390.444L249.794 408.038L306.664 387.085L327.873 393.442L390.619 361.541L387.455 324.528Z" fill="#1E2E5C"/>
<path d="M223.48 75.8279H83.3296V226.926H223.48V75.8279Z" fill="#6373A4"/>
<path d="M332.644 72.2304H246.362V226.926H332.644V72.2304Z" fill="#6373A4"/>
<path d="M98.584 167.366H88.0966V226.926H217.864L218.236 202.942H197.738V184.555H185.344V198.945L181.53 195.803V180.957H171.996V187.752H164.369V155.374H152.928V194.947H141.01V177.759L126.552 165.767H117.175V182.956L111.932 178.359V167.766H107.641V182.956H98.584V167.366Z" fill="#516493"/>
<path d="M288.311 139.385H285.451V143.782H281.637V161.37H270.673V167.366H265.906V149.378H257.326V158.572H246.362V226.926H332.168V180.957H323.11V144.581H305.949V169.365H296.415V143.382H291.648V139.785H289.741" fill="#516493"/>
<path opacity="0.7" d="M212.993 180.557H223.48V226.926H93.7128L93.3409 208.139H113.839V193.748H126.233V205.055L130.047 202.6V190.95H139.581V196.147H147.208V170.964H158.649V201.743H170.567V188.496L185.025 178.958H194.402V192.558L199.645 188.965V180.557H203.936V192.549H212.993V180.557Z" fill="url(#paint9_linear_255_2)"/>
<path opacity="0.7" d="M332.168 173.362V226.926H246.362V190.95H255.419V162.569H272.58V181.756H282.114V161.77H286.881V158.972H288.788V136.987H290.218V158.572H293.078V161.77H296.892V175.76H307.856V180.557H312.623V166.167H321.204V173.362H332.168Z" fill="url(#paint10_linear_255_2)"/>
<path d="M396.522 67.8333H345.992V226.926H396.522V67.8333Z" fill="#39335D"/>
<path d="M396.523 78.6261H345.992V83.8225H396.523V78.6261Z" fill="#6373A4"/>
<path d="M345.992 82.2236H393.711L396.523 78.6261H345.992V82.2236Z" fill="#1E2E5C"/>
<path d="M396.523 83.4228H345.992V88.6193H396.523V83.4228Z" fill="#6373A4"/>
<path d="M345.992 87.0204H393.711L396.523 83.4228H345.992V87.0204Z" fill="#1E2E5C"/>
<path d="M396.523 88.2196H345.992V93.4161H396.523V88.2196Z" fill="#6373A4"/>
<path d="M345.992 91.8172H393.711L396.523 88.2196H345.992V91.8172Z" fill="#1E2E5C"/>
<path d="M396.523 93.0163H345.992V98.2128H396.523V93.0163Z" fill="#6373A4"/>
<path d="M345.992 96.6139H393.711L396.523 93.0163H345.992V96.6139Z" fill="#1E2E5C"/>
<path d="M396.523 97.8131H345.992V103.01H396.523V97.8131Z" fill="#6373A4"/>
<path d="M345.992 101.411H393.711L396.523 97.8131H345.992V101.411Z" fill="#1E2E5C"/>
<path d="M396.523 102.61H345.992V107.806H396.523V102.61Z" fill="#6373A4"/>
<path d="M345.992 106.207H393.711L396.523 102.61H345.992V106.207Z" fill="#1E2E5C"/>
<path d="M396.523 107.407H345.992V112.603H396.523V107.407Z" fill="#6373A4"/>
<path d="M345.992 111.004H393.711L396.523 107.407H345.992V111.004Z" fill="#1E2E5C"/>
<path d="M396.523 112.203H345.992V117.4H396.523V112.203Z" fill="#6373A4"/>
<path d="M345.992 115.801H393.711L396.523 112.203H345.992V115.801Z" fill="#1E2E5C"/>
<path d="M396.523 117H345.992V122.197H396.523V117Z" fill="#6373A4"/>
<path d="M345.992 120.598H393.711L396.523 117H345.992V120.598Z" fill="#1E2E5C"/>
<path d="M396.523 121.797H345.992V126.993H396.523V121.797Z" fill="#6373A4"/>
<path d="M345.992 125.394H393.711L396.523 121.797H345.992V125.394Z" fill="#1E2E5C"/>
<path d="M396.523 126.594H345.992V131.79H396.523V126.594Z" fill="#6373A4"/>
<path d="M345.992 130.191H393.711L396.523 126.594H345.992V130.191Z" fill="#1E2E5C"/>
<path d="M396.523 131.39H345.992V136.587H396.523V131.39Z" fill="#6373A4"/>
<path d="M345.992 134.988H393.711L396.523 131.39H345.992V134.988Z" fill="#1E2E5C"/>
<path d="M396.523 136.187H345.992V141.384H396.523V136.187Z" fill="#6373A4"/>
<path d="M345.992 139.785H393.711L396.523 136.187H345.992V139.785Z" fill="#1E2E5C"/>
<path d="M396.523 140.984H345.992V146.18H396.523V140.984Z" fill="#6373A4"/>
<path d="M345.992 144.582H393.711L396.523 140.984H345.992V144.582Z" fill="#1E2E5C"/>
<path d="M396.523 145.781H345.992V150.977H396.523V145.781Z" fill="#6373A4"/>
<path d="M345.992 149.378H393.711L396.523 145.781H345.992V149.378Z" fill="#1E2E5C"/>
<path d="M396.523 150.577H345.992V155.774H396.523V150.577Z" fill="#6373A4"/>
<path d="M345.992 154.175H393.711L396.523 150.577H345.992V154.175Z" fill="#1E2E5C"/>
<path d="M396.523 155.374H345.992V160.571H396.523V155.374Z" fill="#6373A4"/>
<path d="M345.992 158.972H393.711L396.523 155.374H345.992V158.972Z" fill="#1E2E5C"/>
<path d="M396.523 160.171H345.992V165.367H396.523V160.171Z" fill="#6373A4"/>
<path d="M345.992 163.769H393.711L396.523 160.171H345.992V163.769Z" fill="#1E2E5C"/>
<path d="M396.523 164.968H345.992V170.164H396.523V164.968Z" fill="#6373A4"/>
<path d="M345.992 168.565H393.711L396.523 164.968H345.992V168.565Z" fill="#1E2E5C"/>
<path d="M396.523 169.765H345.992V174.961H396.523V169.765Z" fill="#6373A4"/>
<path d="M345.992 173.362H393.711L396.523 169.765H345.992V173.362Z" fill="#1E2E5C"/>
<path d="M396.523 174.561H345.992V179.758H396.523V174.561Z" fill="#6373A4"/>
<path d="M345.992 178.159H393.711L396.523 174.561H345.992V178.159Z" fill="#1E2E5C"/>
<path d="M396.523 179.358H345.992V184.555H396.523V179.358Z" fill="#6373A4"/>
<path d="M345.992 182.956H393.711L396.523 179.358H345.992V182.956Z" fill="#1E2E5C"/>
<path d="M396.523 184.155H345.992V189.351H396.523V184.155Z" fill="#6373A4"/>
<path d="M345.992 187.752H393.711L396.523 184.155H345.992V187.752Z" fill="#1E2E5C"/>
<path d="M396.523 188.952H345.992V194.148H396.523V188.952Z" fill="#6373A4"/>
<path d="M345.992 192.549H393.711L396.523 188.952H345.992V192.549Z" fill="#1E2E5C"/>
<path d="M396.523 193.748H345.992V198.945H396.523V193.748Z" fill="#6373A4"/>
<path d="M345.992 197.346H393.711L396.523 193.748H345.992V197.346Z" fill="#1E2E5C"/>
<path d="M396.523 198.545H345.992V203.742H396.523V198.545Z" fill="#6373A4"/>
<path d="M345.992 202.143H393.711L396.523 198.545H345.992V202.143Z" fill="#1E2E5C"/>
<path d="M396.523 203.342H345.992V208.538H396.523V203.342Z" fill="#6373A4"/>
<path d="M345.992 206.939H393.711L396.523 203.342H345.992V206.939Z" fill="#1E2E5C"/>
<path d="M396.523 208.139H345.992V213.335H396.523V208.139Z" fill="#6373A4"/>
<path d="M345.992 211.736H393.711L396.523 208.139H345.992V211.736Z" fill="#1E2E5C"/>
<path d="M396.523 212.935H345.992V218.132H396.523V212.935Z" fill="#6373A4"/>
<path d="M345.992 216.533H393.711L396.523 212.935H345.992V216.533Z" fill="#1E2E5C"/>
<path d="M396.523 217.732H345.992V222.929H396.523V217.732Z" fill="#6373A4"/>
<path d="M345.992 221.33H393.711L396.523 217.732H345.992V221.33Z" fill="#1E2E5C"/>
<path d="M396.523 222.529H345.992V227.725H396.523V222.529Z" fill="#6373A4"/>
<path d="M345.992 226.126H393.711L396.523 222.529H345.992V226.126Z" fill="#1E2E5C"/>
<path d="M160.555 207.176C160.555 207.176 185.582 220.13 196.785 226.926" stroke="#342E4F" stroke-width="1.83127" stroke-miterlimit="10"/>
<path d="M201.642 227.1C201.642 227.1 190.675 213.716 182.746 208.139" stroke="#342E4F" stroke-width="1.83127" stroke-miterlimit="10"/>
<path d="M198.453 205.141C198.453 205.141 201.197 220.192 205.726 226.988" stroke="#342E4F" stroke-width="1.83127" stroke-miterlimit="10"/>
<path d="M183.151 209.658C182.712 209.985 182.221 210.193 181.687 210.269C175.967 211.069 168.025 197.746 165.165 193.217C162.305 188.684 156.584 183.355 154.678 172.163C152.771 160.97 154.678 149.578 154.678 149.578C154.835 149.61 154.983 149.662 155.13 149.734C157.681 150.941 158.977 157.561 161.985 163.101C165.165 168.965 175.652 172.962 181.687 183.088C187.16 192.269 187.413 206.48 183.151 209.658Z" fill="#C1CFCA"/>
<path d="M200.126 208.43C197.366 210.333 193.085 209.829 190.907 206.008C187.408 199.876 191.541 190.283 192.814 186.285C194.082 182.288 194.401 175.093 195.989 175.093C195.989 175.093 196.027 175.257 196.098 175.545C196.494 177.104 197.881 182.34 199.488 185.486C201.394 189.219 202.028 195.347 202.662 202.542C202.901 205.253 201.79 207.279 200.126 208.43Z" fill="#C1CFCA"/>
<path d="M178.827 217.2C178.827 217.2 178.76 217.292 178.603 217.44C178.012 218.02 176.129 219.495 171.839 220.131C166.433 220.93 146.411 212.935 142.917 210.305C139.423 207.675 134.971 208.139 131.796 203.61C128.959 199.568 131.181 197.438 131.696 197.022C131.758 196.97 131.796 196.946 131.796 196.946C131.796 196.946 137.197 197.746 139.738 198.813C142.283 199.876 152.771 200.144 160.712 203.074C168.659 206.008 178.827 217.2 178.827 217.2Z" fill="#C1CFCA"/>
<path opacity="0.6" d="M178.603 217.44C178.012 218.02 176.129 219.495 171.839 220.131C166.433 220.93 146.411 212.935 142.917 210.305C139.423 207.675 134.971 208.139 131.796 203.61C128.959 199.568 131.181 197.438 131.696 197.022C133.445 198.085 145.258 205.185 154.358 208.139C162.948 210.929 175.524 216.145 178.603 217.44Z" fill="url(#paint11_linear_255_2)"/>
<path opacity="0.7" d="M183.151 209.658C182.712 209.985 182.221 210.193 181.687 210.269C175.967 211.069 168.025 197.746 165.165 193.217C162.305 188.684 156.584 183.355 154.678 172.163C152.771 160.97 154.678 149.578 154.678 149.578C154.835 149.61 154.983 149.662 155.13 149.734C156.06 154.267 158.215 163.405 161.509 169.365C165.694 176.936 180.048 196.618 183.151 209.658Z" fill="url(#paint12_linear_255_2)"/>
<path opacity="0.7" d="M200.126 208.43C197.366 210.333 193.085 209.829 190.907 206.008C187.408 199.876 191.541 190.283 192.814 186.285C194.082 182.288 194.401 175.093 195.989 175.093C195.989 175.093 196.027 175.257 196.098 175.545C196.098 180.789 196.275 192.509 197.738 196.259C199.235 200.088 201.757 204.357 200.126 208.43Z" fill="url(#paint13_linear_255_2)"/>
<path d="M148.399 209.508C148.399 209.508 167.81 217.748 178.603 217.44" stroke="#EAE7C5" stroke-width="1.83127" stroke-miterlimit="10"/>
<path d="M160.555 176.36C160.555 176.36 174.218 206.004 181.688 210.269" stroke="#EAE7C5" stroke-width="1.83127" stroke-miterlimit="10"/>
<path d="M195.094 187.752C195.094 187.752 194.251 203.836 196.114 209.485" stroke="#EAE7C5" stroke-width="1.83127" stroke-miterlimit="10"/>
<path d="M229.678 83.8225H223.48V226.926H229.678V83.8225Z" fill="#F2EED0"/>
<path d="M335.028 74.6288H328.831V226.926H335.028V74.6288Z" fill="#F2EED0"/>
<path opacity="0.7" d="M229.678 83.8225H223.48V226.926H229.678V83.8225Z" fill="url(#paint14_linear_255_2)"/>
<path opacity="0.7" d="M335.028 74.6288H328.831V226.926H335.028V74.6288Z" fill="url(#paint15_linear_255_2)"/>
<path d="M396.523 81.0244H345.992V228.925H396.523V81.0244Z" fill="url(#paint16_linear_255_2)"/>
<path d="M318.82 74.229H246.361V220.131H318.82V74.229Z" fill="url(#paint17_linear_255_2)"/>
<path d="M303.909 74.229L246.361 160.671V124.151L279.597 74.229H303.909Z" fill="url(#paint18_linear_255_2)"/>
<path d="M318.82 74.229V99.0683L246.361 205.92V170.068L311.35 74.229H318.82Z" fill="url(#paint19_linear_255_2)"/>
<path d="M214.422 74.229H99.0605V220.131H214.422V74.229Z" fill="url(#paint20_linear_255_2)"/>
<path d="M172.949 106.207L106.688 205.74H99.0605V180.677L148.637 106.207H172.949Z" fill="url(#paint21_linear_255_2)"/>
<path d="M214.423 87.8199V92.037L127.558 220.131H103.246L192.971 87.8199H214.423Z" fill="url(#paint22_linear_255_2)"/>
<path d="M446.576 185.754C446.576 185.754 427.985 180.025 418.451 175.095C408.917 170.164 377.931 161.37 372.211 173.762C366.49 186.153 370.304 200.144 383.651 202.942C396.999 205.74 417.021 213.335 422.741 206.54C428.461 199.744 431.798 196.147 438.949 196.946C446.099 197.745 446.576 185.754 446.576 185.754Z" fill="#ED7625"/>
<path d="M444.669 187.495C444.669 187.495 426.918 182.659 417.384 177.729C407.85 172.798 377.931 161.37 372.211 173.762C366.49 186.153 370.304 200.144 383.652 202.942C396.999 205.74 417.021 213.335 422.741 206.54C428.461 199.744 431.798 196.147 438.949 196.946C446.099 197.745 444.669 187.495 444.669 187.495Z" fill="url(#paint23_linear_255_2)"/>
<path d="M356.638 178.124C356.638 178.124 317.152 175.894 308.888 182.023C300.626 188.152 300.11 200.214 315.602 210.305C331.095 220.397 348.852 210.305 348.852 210.305L356.638 178.124Z" fill="#ED7625"/>
<path d="M356.078 182.156C356.078 182.156 319.492 178.825 311.229 184.954C302.966 191.083 300.11 200.214 315.603 210.305C331.096 220.397 348.853 210.305 348.853 210.305L356.078 182.156Z" fill="url(#paint24_linear_255_2)"/>
<path d="M431.117 180.477C431.002 183.087 424.014 182.024 421.468 183.887C418.927 185.754 414.794 184.954 413.207 185.754C411.62 186.553 414.794 183.455 413.207 179.942C411.62 176.428 404.96 173.19 402.72 178.123C402.72 178.123 406.533 182.556 405.899 184.155C405.26 185.754 398.587 180.689 397.476 184.155C396.365 187.62 390.959 194.016 383.971 194.816C376.978 195.615 350.602 190.818 348.852 185.754C347.103 180.689 351.87 180.157 353.462 175.093C354.602 171.467 356.556 163.593 360.145 158.444C361.566 156.405 363.239 154.799 365.218 154.043C372.211 151.377 378.566 154.043 378.566 154.043C378.566 154.043 380.472 150.446 388.419 149.578C395.999 148.751 405.89 155.502 412.025 163.297C412.321 163.673 412.612 164.056 412.889 164.436C418.927 172.694 421.788 174.561 425.601 175.093C429.415 175.629 431.232 177.863 431.117 180.477Z" fill="#1E2E5C"/>
<path d="M402.719 178.124C402.719 178.124 406.533 182.555 405.898 184.154C405.262 185.753 398.589 180.69 397.476 184.154C396.364 187.619 390.961 194.015 383.969 194.814C376.978 195.613 350.601 190.817 348.853 185.753C347.104 180.69 358.704 182.023 360.293 176.959C361.883 171.896 358.227 156.706 365.219 154.042C372.211 151.377 378.566 154.042 378.566 154.042C378.566 154.042 380.473 150.444 388.418 149.578C396.364 148.712 406.851 156.173 412.889 164.435C418.927 172.696 421.787 174.562 425.601 175.094C429.415 175.627 431.232 177.863 431.117 180.476C431.003 183.088 424.012 182.023 421.47 183.888C418.927 185.753 414.796 184.954 413.207 185.753C411.618 186.553 414.796 183.456 413.207 179.941C411.618 176.426 404.961 173.192 402.719 178.124Z" fill="url(#paint25_linear_255_2)"/>
<path d="M428.938 196.946C428.938 196.946 438.655 195.08 440.537 189.751C442.418 184.421 442.418 184.421 442.418 184.421L436.088 182.273C436.088 182.273 440.169 182.657 442.418 179.942C444.668 177.226 452.667 179.942 452.667 179.942C452.667 179.942 456.109 181.49 456.109 183.888C456.109 186.287 458.969 187.796 464.053 187.841C469.139 187.885 476.967 188.152 481.634 190.55C486.3 192.949 499.779 213.573 504.069 235.158C508.359 256.742 505.395 295.204 491.147 317.643C476.899 340.081 456.053 356.496 456.053 356.496L397.475 310.702L376.797 286.12L393.242 241.752L428.938 196.946Z" fill="#B0B100"/>
<path d="M428.938 196.946C428.938 196.946 438.655 195.08 440.537 189.751C442.418 184.421 442.418 184.421 442.418 184.421L436.088 182.273C436.088 182.273 440.169 182.657 442.418 179.942C444.668 177.226 452.667 179.942 452.667 179.942C452.667 179.942 456.109 181.49 456.109 183.888C456.109 186.287 458.969 187.796 464.053 187.841C469.139 187.885 476.967 188.152 481.634 190.55C486.3 192.949 499.779 213.573 504.069 235.158C508.359 256.742 505.395 295.204 491.147 317.643C476.899 340.081 456.053 356.496 456.053 356.496L397.475 310.702L376.797 286.12L393.242 241.752L428.938 196.946Z" fill="url(#paint26_linear_255_2)"/>
<path d="M481.852 215.106C486.142 236.691 478.458 266.275 464.209 288.716C449.96 311.153 456.053 356.494 456.053 356.494L415.662 324.92L397.476 310.701L376.796 286.118L393.242 241.752L403.887 228.393L428.938 196.946C428.938 196.946 438.653 195.079 440.536 189.751C442.418 184.423 442.418 184.423 442.418 184.423L436.088 182.272C436.088 182.272 440.169 182.656 442.418 179.942C443.859 178.207 447.644 178.69 450.189 179.266C451.624 179.59 452.668 179.942 452.668 179.942C452.668 179.942 456.11 181.489 456.11 183.887C456.11 186.285 458.97 187.796 464.052 187.84C469.138 187.884 476.965 188.152 481.632 190.55C486.299 192.949 477.561 193.52 481.852 215.106Z" fill="url(#paint27_linear_255_2)"/>
<path d="M402.402 196.259C402.402 196.259 378.185 190.44 369.636 188.364C361.088 186.287 341.542 181.113 332.882 188.364C324.223 195.614 320.332 204.314 324.541 209.508C328.749 214.703 360.706 218.798 369.636 221.729C378.567 224.661 395.728 229.724 395.728 229.724L403.673 226.926L402.402 196.259Z" fill="#ED7625"/>
<path d="M400.336 202.942C400.336 202.942 376.945 192.626 368.397 190.55C359.848 188.473 341.542 181.114 332.882 188.364C324.223 195.614 320.332 204.315 324.541 209.509C328.749 214.703 360.706 218.798 369.636 221.729C378.567 224.661 395.728 229.724 395.728 229.724L403.673 226.926L400.336 202.942Z" fill="url(#paint28_linear_255_2)"/>
<path d="M183.787 342.966C183.787 342.966 175.219 354.086 167.213 358.428C159.208 362.769 142.431 363.393 137.41 366.306C132.39 369.219 133.622 372.496 133.622 372.496C133.622 372.496 148.77 373.379 161.61 374.128C174.45 374.877 187.305 375.435 189.891 373.077C192.475 370.72 192.345 363.499 194.211 359.802C196.077 356.104 200.881 350.031 200.881 350.031L183.787 342.966Z" fill="#ED7625"/>
<path d="M183.787 342.966C183.787 342.966 175.219 354.086 167.213 358.428C159.208 362.769 142.431 363.393 137.41 366.306C132.39 369.219 133.622 372.496 133.622 372.496C133.622 372.496 148.77 373.379 161.61 374.128C174.45 374.877 187.305 375.435 189.891 373.077C192.475 370.72 192.345 363.499 194.211 359.802C196.077 356.104 200.881 350.031 200.881 350.031L183.787 342.966Z" fill="url(#paint29_linear_255_2)"/>
<path d="M388.101 209.508C388.101 209.508 385.241 221.729 388.101 229.724C390.961 237.719 393.186 236.919 393.186 236.919C393.186 236.919 402.402 236.164 410.983 236.942C419.563 237.719 436.724 239.851 446.576 239.051C456.429 238.252 464.373 231.057 464.373 221.996C464.373 212.935 463.845 206.273 452.668 201.743C441.492 197.213 427.826 198.504 421.47 196.259C415.114 194.015 387.617 192.279 386.83 192.301C386.044 192.324 389.084 203.325 388.101 209.508Z" fill="#B0B100"/>
<path d="M464.371 221.997C464.371 231.055 456.43 238.25 446.576 239.05C436.723 239.849 419.562 237.719 410.981 236.943C402.4 236.164 393.186 236.919 393.186 236.919C393.186 236.919 390.96 237.719 388.099 229.724C385.239 221.729 388.099 209.51 388.099 209.51C388.609 206.308 388.042 201.819 387.484 198.229C387.418 197.806 387.351 197.39 387.289 196.994C386.85 194.268 386.498 192.313 386.831 192.301C387.618 192.277 415.114 194.016 421.468 196.259C421.611 196.311 421.759 196.359 421.912 196.407C425.93 197.666 432.514 197.718 439.531 198.605C443.916 199.161 448.469 200.044 452.668 201.743C463.847 206.272 464.371 212.935 464.371 221.997Z" fill="url(#paint30_linear_255_2)"/>
<path d="M372.211 356.496C372.211 356.496 332.168 321.262 319.297 305.673C306.426 290.083 289.265 275.693 289.265 275.693L194.878 350.443C194.878 350.443 174.38 342.048 173.427 335.653C172.473 329.257 182.007 326.059 185.344 320.463C188.681 314.867 207.272 293.743 210.133 289.115C212.993 284.487 226.238 267.615 226.238 267.615C226.238 267.615 250.652 242.116 255.419 235.72C260.186 229.324 274.964 214.837 279.731 209.289C284.498 203.742 287.835 196.147 291.172 196.947C294.509 197.746 298.322 196.621 315.722 207.176C333.122 217.732 372.688 345.361 372.211 356.496Z" fill="#6BA6C6"/>
<path opacity="0.5" d="M372.211 356.496C372.211 356.496 332.168 321.262 319.297 305.673C306.426 290.083 289.265 275.693 289.265 275.693L194.878 350.443C194.878 350.443 174.38 342.048 173.427 335.653C172.473 329.257 182.007 326.059 185.344 320.463C188.681 314.867 207.272 293.743 210.133 289.115C212.993 284.487 226.238 267.615 226.238 267.615C226.238 267.615 250.652 242.116 255.419 235.72C260.186 229.324 274.964 214.837 279.731 209.289C284.498 203.742 287.835 196.147 291.172 196.947C294.509 197.746 298.322 196.621 315.722 207.176C333.122 217.732 372.688 345.361 372.211 356.496Z" fill="url(#paint31_linear_255_2)"/>
<path d="M372.211 356.494C372.211 356.494 334.079 316.254 321.208 300.664C308.337 285.075 289.265 275.693 289.265 275.693L261.707 297.518L194.878 350.443C194.878 350.443 174.38 342.048 173.426 335.653C172.473 329.257 184.867 328.857 188.204 323.261C189.582 320.95 193.071 315.518 196.899 309.606C202.338 301.204 208.454 291.834 210.132 289.116C212.992 284.487 226.24 267.614 226.24 267.614C226.24 267.614 252.559 244.198 257.326 237.803C262.093 231.407 279.492 222.081 284.259 216.533C289.026 210.985 290.695 202.143 294.032 202.942C297.369 203.742 298.322 196.622 315.722 207.175C333.121 217.732 372.687 345.362 372.211 356.494Z" fill="url(#paint32_linear_255_2)"/>
<path d="M261.707 297.518L194.878 350.443C194.878 350.443 174.38 342.048 173.426 335.653C172.473 329.257 184.867 328.857 188.204 323.261C189.582 320.95 193.071 315.518 196.899 309.606C198.281 314.251 202.229 317.773 212.516 313.196C224.929 307.671 244.936 301.699 261.707 297.518Z" fill="url(#paint33_linear_255_2)"/>
<path opacity="0.5" d="M412.025 163.297C407.968 166.739 396.418 155.85 392.709 158.572C388.895 161.37 382.698 162.969 376.501 158.572C370.952 154.635 361.971 157.745 360.145 158.444C361.566 156.405 363.239 154.799 365.218 154.043C372.211 151.377 378.565 154.043 378.565 154.043C378.565 154.043 380.472 150.446 388.419 149.578C395.998 148.751 405.89 155.502 412.025 163.297Z" fill="url(#paint34_linear_255_2)"/>
<path d="M446.099 212.136C437.519 212.136 432.275 200.144 425.772 203.034C419.271 205.928 439.426 222.529 431.531 222.129C423.632 221.729 414.16 209.738 402.958 200.943C397.376 196.562 391.736 196.842 387.484 198.229C386.965 194.88 386.45 192.313 386.831 192.301C387.618 192.277 415.114 194.016 421.468 196.259C425.439 197.662 432.251 197.686 439.531 198.605C440.431 203.686 452.768 212.136 446.099 212.136Z" fill="url(#paint35_linear_255_2)"/>
<path opacity="0.5" d="M421.912 196.407C419.924 197.114 417.479 197.646 414.876 197.442C408.44 196.938 402.481 197.146 394.635 197.414C391.436 197.522 389.024 197.298 387.289 196.994C386.85 194.268 386.498 192.313 386.831 192.301C387.618 192.277 415.114 194.016 421.469 196.259C421.612 196.311 421.759 196.359 421.912 196.407Z" fill="url(#paint36_linear_255_2)"/>
<path d="M450.866 188.364C450.866 193.097 442.495 196.163 442.234 196.255C442.29 196.167 444.231 193.285 446.576 189.351C448.96 185.354 445.384 183.155 442.419 179.942C443.859 178.207 447.644 178.69 450.189 179.266C449.87 181.373 450.866 184.642 450.866 188.364Z" fill="url(#paint37_linear_255_2)"/>
<path d="M415.662 324.92L397.475 310.701L376.796 286.118L393.242 241.752L403.887 228.393C408.864 231.659 419.475 239.669 421.911 249.978C425.124 263.569 426.311 280.818 431.121 288.716C435.306 295.584 420.405 318.264 415.662 324.92Z" fill="url(#paint38_linear_255_2)"/>
<path d="M246.362 165.767L238.258 152.576V81.0244H246.362V165.767Z" fill="url(#paint39_linear_255_2)"/>
<path d="M212.516 356.424C212.516 356.424 211.114 358.53 209.622 361.013C208.507 362.876 207.339 364.987 206.671 366.614C206.624 366.73 206.576 366.863 206.533 366.983C205.155 370.86 205.77 377.696 203.458 380.122C201.075 382.625 188.204 382.821 175.333 382.821C162.462 382.821 147.279 382.821 147.279 382.821C147.279 382.821 145.777 379.623 150.544 376.425C155.311 373.227 171.996 371.629 179.623 366.832C183.008 364.701 186.397 361.232 189.114 358.034C189.534 357.538 189.939 357.05 190.325 356.575C190.626 356.207 190.912 355.847 191.188 355.495C193.438 352.629 194.878 350.373 194.878 350.373L208.101 354.84H208.106L212.516 356.424Z" fill="#ED7625"/>
<path d="M212.516 356.424C212.516 356.424 211.114 358.53 209.622 361.013C208.507 362.876 205.397 361.208 204.73 362.835C204.682 362.951 202.548 366.476 202.505 366.597C201.127 370.474 198.996 375.998 196.684 378.424C194.301 380.926 188.204 382.821 175.333 382.821C162.462 382.821 147.279 382.821 147.279 382.821C147.279 382.821 145.777 379.623 150.544 376.425C155.311 373.227 171.996 371.629 179.623 366.832C183.008 364.701 186.397 361.232 189.114 358.034C189.534 357.538 189.939 357.05 190.325 356.575C190.626 356.207 190.912 355.847 191.188 355.495C193.438 352.629 194.878 350.373 194.878 350.373L208.101 354.84H208.106L212.516 356.424Z" fill="url(#paint40_linear_255_2)"/>
<path d="M457.073 354.44C444.283 363.658 432.437 368.031 421.087 369.398C414.78 370.157 408.631 369.989 402.553 369.21C395.86 368.354 389.262 366.751 382.651 364.833C359.24 358.033 354.096 316.066 351.036 307.272C349.139 301.803 340.649 282.432 334.5 268.558C330.751 260.111 327.877 253.704 327.877 253.704C327.877 253.704 315.006 276.492 306.426 285.286C297.845 294.081 249.222 333.254 242.548 341.648C235.874 350.043 229.2 360.835 226.24 362.434C224.371 363.442 216.568 362.386 209.622 361.047C205.542 360.264 201.761 359.384 199.645 358.765C197.929 358.261 195.96 357.566 194.039 356.77C193.061 356.366 192.099 355.935 191.188 355.495C187.918 353.904 185.344 352.157 185.344 350.842C185.344 348.444 199.645 331.255 206.671 324.528C213.693 317.8 248.745 276.892 266.86 256.506C282.839 238.522 308.29 202.97 329.913 191.094C333.24 189.267 341.559 192.301 348.471 196.259C355.402 200.228 363.034 206.907 370.852 215.106C396.937 242.467 425.086 286.757 436.088 303.674C450.389 325.659 457.073 354.44 457.073 354.44Z" fill="#6BA6C6"/>
<path d="M457.073 354.44C446.032 362.398 435.693 366.743 425.773 368.662C424.2 368.966 422.641 369.21 421.087 369.398C414.78 370.157 408.631 369.989 402.553 369.21C395.86 368.354 389.262 366.751 382.651 364.833C359.24 358.033 354.096 316.066 351.036 307.272C349.139 301.803 340.649 282.432 334.5 268.558C330.751 260.111 327.877 253.704 327.877 253.704C327.877 253.704 315.006 276.492 306.426 285.286C297.845 294.081 249.222 333.254 242.548 341.648C235.874 350.043 229.2 360.835 226.24 362.434C224.371 363.442 216.568 362.386 209.622 361.047C205.542 360.264 201.761 359.384 199.645 358.765C198.715 358.493 197.714 358.165 196.684 357.793C195.812 357.477 194.921 357.134 194.039 356.77C193.986 356.745 193.929 356.726 193.877 356.702C192.957 356.318 192.046 355.91 191.188 355.494C187.918 353.904 185.344 352.157 185.344 350.842C185.344 348.444 199.645 331.255 206.671 324.528C213.693 317.8 248.745 276.892 266.86 256.506C282.338 239.086 306.707 205.177 327.872 192.277C327.877 192.273 327.877 192.273 327.877 192.273C328.559 191.858 329.24 191.466 329.913 191.094C333.24 189.267 341.559 192.301 348.471 196.259C355.402 200.228 363.034 206.907 370.852 215.106C396.937 242.467 425.086 286.757 436.088 303.674C450.389 325.659 457.073 354.44 457.073 354.44Z" fill="#6BA6C6"/>
<path opacity="0.3" d="M327.877 253.704C327.877 253.704 315.006 276.492 306.426 285.287C297.845 294.081 249.222 333.254 242.548 341.648C235.874 350.043 229.2 360.836 226.24 362.434C224.371 363.442 216.568 362.386 209.622 361.047C205.542 360.264 201.761 359.384 199.645 358.765C197.929 358.261 195.96 357.634 194.039 356.838C193.986 356.814 193.929 356.838 193.877 356.838H194.039C198.71 356.838 203.63 356.039 208.101 354.84H208.106C211.333 354.04 214.322 353.249 216.806 352.373C225.863 349.175 221.573 339.614 225.387 335.217C229.2 330.82 259.709 319.248 263.999 311.253C268.29 303.258 235.874 311.661 235.874 305.665C235.874 299.669 277.824 293.677 290.218 278.851C302.612 264.029 311.193 232.918 319.297 232.519C327.401 232.119 327.877 253.704 327.877 253.704Z" fill="url(#paint41_linear_255_2)"/>
<path d="M457.073 354.44C444.283 363.658 432.437 368.031 421.087 369.398C416.082 368.707 412.192 368.211 410.147 368.518C408.44 368.775 405.8 369.006 402.553 369.21C395.86 368.354 389.262 366.752 382.651 364.833C359.24 358.033 354.097 316.066 351.036 307.272C349.139 301.803 340.649 282.433 334.5 268.558C338.852 270.032 345.359 273.046 350.283 278.855C358.387 288.416 368.398 280.09 378.885 265.3C385.453 256.034 377.622 231.871 370.853 215.106C396.937 242.467 425.086 286.758 436.089 303.674C450.39 325.659 457.073 354.44 457.073 354.44Z" fill="url(#paint42_linear_255_2)"/>
<path opacity="0.3" d="M425.772 368.662C424.2 368.966 422.641 369.21 421.086 369.398C414.78 370.157 408.631 369.989 402.553 369.21C395.859 368.354 389.262 366.751 382.65 364.833C359.24 358.033 354.096 316.066 351.035 307.272C349.138 301.803 340.648 282.432 334.499 268.558C330.751 260.111 327.877 253.704 327.877 253.704C327.877 253.704 315.006 276.492 306.426 285.286C297.845 294.081 249.222 333.254 242.548 341.648C235.874 350.043 229.2 360.835 226.24 362.434C224.371 363.442 216.568 362.386 209.622 361.047C205.541 360.264 201.761 359.384 199.645 358.765C198.715 358.493 197.714 358.165 196.684 357.793C203.168 351.273 218.97 334.969 223.48 326.458C229.2 315.666 260.324 302.347 263.999 297.29C267.675 292.23 305.949 228.525 323.587 221.729C341.225 214.934 341.702 220.567 351.712 241.333C361.723 262.104 394.616 318.632 402.958 329.141C410.514 338.662 422.893 362.722 425.772 368.662Z" fill="url(#paint43_linear_255_2)"/>
<path d="M187.046 347.595C187.046 347.595 187.346 347.718 187.905 347.936" stroke="#342E4F" stroke-width="1.83127" stroke-miterlimit="10"/>
<path d="M189.642 348.6C196.326 351.102 214.615 357.406 229.09 357.336" stroke="#342E4F" stroke-width="1.83127" stroke-miterlimit="10" stroke-dasharray="3.67 3.67"/>
<path d="M230.051 357.32C230.37 357.313 230.687 357.302 231.002 357.288" stroke="#342E4F" stroke-width="1.83127" stroke-miterlimit="10"/>
<path opacity="0.5" d="M327.873 192.277C327.72 192.517 321.776 201.795 317.071 205.74C312.304 209.738 271.627 253.976 264.953 263.569C258.279 273.163 217.354 322.597 206.671 324.528C213.693 317.801 248.745 276.892 266.86 256.506C282.338 239.086 306.707 205.177 327.873 192.277Z" fill="url(#paint44_linear_255_2)"/>
<path opacity="0.7" d="M387.465 300.663C387.465 300.663 398.906 284.417 418.45 278.856L435.135 294.442L387.465 300.663Z" fill="#1E2E5C"/>
<path d="M308.571 386.018C308.985 387.406 300.862 387.19 293.941 386.758C288.902 386.446 284.497 386.018 284.497 386.018L262.092 384.42L235.874 382.421L284.497 354.44C284.497 354.44 294.656 356.291 302.65 357.474C306.396 358.03 309.672 358.437 311.193 358.437C315.96 358.437 332.644 362.834 332.644 362.834C332.644 362.834 307.856 383.62 308.571 386.018Z" fill="#A3D4E5"/>
<path d="M458.353 297.29C458.353 297.29 471.014 297.998 476.501 305.076C481.988 312.154 477.767 338.343 479.455 345.775C481.143 353.207 488.74 377.98 486.208 385.766C483.675 393.552 466.372 400.276 444.847 397.091C423.322 393.906 433.452 350.599 435.14 349.602C436.829 348.606 458.353 297.29 458.353 297.29Z" fill="#39335D"/>
<path d="M475.178 326.858C475.178 326.858 471.015 297.998 476.501 305.076C481.988 312.154 477.767 338.343 479.456 345.775C481.144 353.207 488.741 377.98 486.208 385.766C483.676 393.552 466.372 400.276 444.847 397.091C423.323 393.906 468.723 351.37 470.411 350.373C472.099 349.376 475.178 326.858 475.178 326.858Z" fill="url(#paint45_linear_255_2)"/>
<path d="M306.664 352.841L289.503 364.433L277.347 373.227H259.947L240.641 368.031L246.361 364.833C246.361 364.833 258.279 360.036 263.046 356.838C265.801 354.991 269.696 352.305 272.489 350.375C274.53 348.96 275.983 347.948 275.983 347.948L306.664 352.841Z" fill="#EFF0CD"/>
<path d="M444.848 397.091C452.023 393.906 464.263 390.72 463.84 368.07C463.418 345.421 460.886 330.911 462.152 322.063C463.418 313.215 467.639 303.66 458.353 297.289C449.068 290.919 411.084 282.779 393.78 295.166C376.476 307.552 370.145 321.41 368.457 338.016C366.769 354.621 363.815 375.856 358.75 383.995C353.685 392.135 353.685 399.213 378.165 399.567C402.643 399.922 444.848 397.091 444.848 397.091Z" fill="#6171A2"/>
<path opacity="0.5" d="M457.073 307.252C457.073 307.252 442.286 318.684 441.809 344.156C441.332 369.629 441.809 383.276 441.809 383.276C441.809 383.276 445.897 380.688 449.335 377.357C452.773 374.026 455.011 364.293 454.369 350.372C453.727 336.452 451.771 316.671 457.073 307.252Z" fill="url(#paint46_linear_255_2)"/>
<path d="M449.913 317.133C448.645 325.979 444.722 343.947 445.146 366.596C445.566 389.248 452.025 393.905 444.846 397.091C444.846 397.091 402.644 399.921 378.165 399.569C353.686 399.213 353.686 392.134 358.749 383.996C360.87 380.59 362.62 374.886 364.064 368.191C366.066 358.888 367.473 347.672 368.455 338.015C370.147 321.41 376.478 307.551 393.782 295.168C403.321 288.336 419.152 287.749 432.99 289.664C444.25 291.219 454.19 294.432 458.356 297.29C467.637 303.658 451.177 308.283 449.913 317.133Z" fill="url(#paint47_linear_255_2)"/>
<path d="M432.99 289.664C432.938 289.887 432.885 290.111 432.828 290.339C428.981 306.312 419.819 338.035 404.017 357.473C394.311 369.413 378.594 370.701 364.064 368.191C366.066 358.889 367.472 347.672 368.454 338.015C369.193 330.763 370.814 324.036 373.85 317.729C377.769 309.586 384.033 302.143 393.782 295.168C403.32 288.336 419.152 287.749 432.99 289.664Z" fill="url(#paint48_linear_255_2)"/>
<path opacity="0.8" d="M432.99 289.664C432.938 289.887 432.885 290.111 432.828 290.339C425.711 294.824 412.006 304.553 406.104 316.186C397.953 332.255 387.456 335.253 387.456 335.253H376.501C376.501 335.253 378.007 325.675 380.829 321.17C382.55 318.42 377.807 317.797 373.85 317.729C377.769 309.586 384.032 302.144 393.781 295.168C403.32 288.336 419.152 287.749 432.99 289.664Z" fill="url(#paint49_linear_255_2)"/>
<path d="M430.674 361.539C429.262 367.067 426.469 372.648 425.224 378.688C423.323 387.889 419.938 394.601 403.063 397.091C400.212 397.511 397.152 397.891 393.996 398.214C378.498 399.805 360.698 400.029 353.686 397.091C345.243 393.553 340.181 385.175 345.668 374.678C350.502 365.425 354.797 357.45 355.836 351.326C355.979 350.503 356.06 349.715 356.079 348.96C356.217 342.588 358.329 338.399 366.347 338.019C374.365 337.635 403.296 339.462 410.142 338.019C416.991 336.572 419.104 340.026 419.104 340.026C424.166 341.881 430.078 344.359 431.34 352.853C431.774 355.771 431.411 358.649 430.674 361.539Z" fill="#6171A2"/>
<path d="M430.674 361.539C427.818 359.948 424.352 357.734 420.792 355.168C419.213 354.032 417.417 353.285 415.381 352.829C407.61 351.082 396.327 353.576 380.272 354.975C373.245 355.591 366.781 354.672 361.285 353.137C359.34 352.597 357.519 351.981 355.836 351.326C355.979 350.502 356.06 349.715 356.079 348.96C356.218 342.588 358.329 338.399 366.348 338.019C372.701 337.715 392.203 338.798 403.421 338.543C406.352 338.475 408.722 338.315 410.143 338.019C416.992 336.572 419.105 340.026 419.105 340.026C424.167 341.881 430.079 344.359 431.342 352.853C431.774 355.771 431.412 358.649 430.674 361.539Z" fill="#39335D"/>
<path d="M454.361 295.172C454.223 300.716 452.02 301.052 450.295 300.444C449.16 300.044 448.226 299.237 448.226 299.237C448.226 299.237 449.913 286.673 444.636 285.078C439.359 283.487 428.39 281.896 425.854 283.132C423.323 284.371 419.948 287.752 419.948 288.716C419.948 289.679 412.349 290.211 412.349 290.211C412.349 290.211 417.417 279.242 422.479 278.886C425.649 278.662 431.884 279.694 437.295 280.489C440.523 280.969 443.459 281.365 445.27 281.365C450.122 281.365 454.59 285.978 454.361 295.172Z" fill="#D9E3C2"/>
<path d="M418.45 316.402V329.141C418.45 329.141 409.026 326.978 403.115 326.579C401.656 326.479 400.412 326.487 399.578 326.663C399.349 326.711 399.106 326.755 398.858 326.787C397.084 327.055 394.854 327.055 392.837 326.955C391.264 326.882 389.824 326.751 388.833 326.647C387.984 326.559 387.465 326.487 387.465 326.487V313.747C387.465 313.747 391.95 313.312 396.965 313.216C399.339 313.172 401.828 313.2 404.016 313.388C405.003 313.476 405.928 313.591 406.752 313.747C407.014 313.799 407.277 313.847 407.538 313.899C409.693 314.319 411.681 314.751 413.349 315.134C416.443 315.85 418.45 316.402 418.45 316.402Z" fill="#D9E3C2"/>
<path opacity="0.4" d="M277.347 373.227L304.519 357.744L300.326 357.122L277.347 373.227Z" fill="#1E2E5C"/>
<path opacity="0.3" d="M306.664 352.841L289.503 364.433L277.347 373.227H268.29C275.283 370.429 280.05 363.102 279.573 357.905C279.097 352.709 272.49 350.375 272.49 350.375C274.53 348.96 275.984 347.948 275.984 347.948L306.664 352.841Z" fill="url(#paint50_linear_255_2)"/>
<path opacity="0.3" d="M308.571 386.018C308.986 387.406 300.863 387.19 293.941 386.758C297.674 383.188 303.747 376.685 305.473 370.761C308.014 362.035 296.21 359.904 296.21 359.904L302.651 357.474C306.397 358.03 309.672 358.437 311.193 358.437C315.96 358.437 332.645 362.834 332.645 362.834C332.645 362.834 307.856 383.62 308.571 386.018Z" fill="url(#paint51_linear_255_2)"/>
<path d="M263.205 375.759L302.771 378.956" stroke="#342E4F" stroke-width="1.83127" stroke-miterlimit="10"/>
<path d="M282.988 374.293L304.519 375.759" stroke="#342E4F" stroke-width="1.83127" stroke-miterlimit="10"/>
<path d="M287.477 370.762L307.22 374.293" stroke="#342E4F" stroke-width="1.83127" stroke-miterlimit="10"/>
<path d="M291.807 366.596L309.286 371.495" stroke="#342E4F" stroke-width="1.83127" stroke-miterlimit="10"/>
<path d="M297.348 363.9L311.228 368.517" stroke="#342E4F" stroke-width="1.83127" stroke-miterlimit="10"/>
<path d="M302.771 361.541L317.073 365.175" stroke="#342E4F" stroke-width="1.83127" stroke-miterlimit="10"/>
<path d="M255.101 365.175L260.877 367.364L268.29 362.835L261.696 361.102L255.101 365.175Z" fill="#6BA6C6"/>
<path d="M272.739 364.233L278.777 365.175L290.933 357.474L284.259 355.372L272.739 364.233Z" fill="url(#paint52_linear_255_2)"/>
<path d="M257.033 380.863C258.192 380.072 258.896 378.928 260.046 378.126C260.607 377.734 259.803 377.068 259.247 377.455C258.096 378.258 257.392 379.402 256.234 380.193C255.668 380.579 256.473 381.246 257.033 380.863Z" fill="#ED7625"/>
<path d="M252.838 380.669C253.987 380.959 255.205 380.906 256.353 381.195C257.053 381.371 257.35 380.457 256.654 380.281C255.504 379.991 254.286 380.045 253.138 379.755C252.439 379.579 252.142 380.493 252.838 380.669Z" fill="#ED7625"/>
<path d="M254.85 379.3C255.69 379.509 256.493 379.813 257.362 379.931C258.074 380.029 258.38 379.116 257.662 379.018C256.793 378.899 255.991 378.595 255.151 378.386C254.451 378.212 254.154 379.126 254.85 379.3Z" fill="#ED7625"/>
<path d="M259.807 375.697C257.49 374.654 254.894 375.257 253.285 376.955C251.893 378.425 251.745 380.639 253.647 381.859C255.83 383.259 258.956 383.399 260.879 381.613C262.842 379.789 261.995 377.195 260.046 375.665C259.515 375.249 258.714 375.917 259.247 376.335C260.731 377.501 261.403 379.118 260.318 380.666C259.115 382.382 256.529 382.185 254.736 381.348C252.89 380.487 253.099 378.666 254.255 377.445C255.474 376.158 257.502 375.735 259.236 376.515C259.878 376.803 260.449 375.986 259.807 375.697Z" fill="#ED7625"/>
<path d="M430.674 361.539C429.262 367.067 426.47 372.648 425.225 378.687C423.323 387.889 419.938 394.601 403.063 397.091C400.213 397.511 397.152 397.891 393.996 398.214C410.576 388.121 415.467 361.935 414.656 358.705C414.309 357.314 414.699 355.223 415.381 352.829C416.53 348.792 418.494 343.887 419.104 340.026C424.167 341.881 430.079 344.359 431.341 352.853C431.775 355.771 431.412 358.649 430.674 361.539Z" fill="url(#paint53_linear_255_2)"/>
<g opacity="0.3">
<path opacity="0.3" d="M404.017 313.388C400.455 316.933 396.075 323.529 392.838 326.954C391.265 326.882 389.825 326.75 388.834 326.646C389.883 323.496 393.868 318.212 395.789 315.798C396.504 314.902 396.847 314.027 396.966 313.215C399.34 313.172 401.828 313.2 404.017 313.388Z" fill="url(#paint54_linear_255_2)"/>
<path opacity="0.3" d="M403.116 326.579C406.043 323.029 409.641 317.944 413.351 315.134C411.682 314.751 409.694 314.319 407.54 313.899C405.595 317.329 401.033 323.041 398.859 326.787L403.116 326.579Z" fill="url(#paint55_linear_255_2)"/>
</g>
<path d="M454.36 295.172C454.222 300.716 452.02 301.052 450.294 300.444C452.072 294.132 449.255 285.926 447.372 283.555C446.647 282.644 442.348 281.525 437.294 280.489C440.522 280.969 443.458 281.365 445.269 281.365C450.122 281.365 454.59 285.978 454.36 295.172Z" fill="url(#paint56_linear_255_2)"/>
<path d="M360.292 360.588C360.292 360.588 358.538 366.565 356.078 370.762C353.618 374.96 348.215 384.553 357.114 385.885C366.012 387.218 387.974 391.482 393.995 387.085C400.017 382.688 401.767 374.145 402.957 369.889C404.148 365.632 404.016 361.102 404.016 361.102C404.016 361.102 373.639 364.87 360.292 360.588Z" fill="url(#paint57_linear_255_2)"/>
<path d="M360.292 360.588L358.699 365.175C358.699 365.175 365.775 365.962 373.164 366.597C380.553 367.232 385.32 367.561 390.325 366.597C395.33 365.633 402.004 366.597 402.004 366.597L402.958 360.274C402.958 360.274 392.232 361.647 386.273 361.541C380.314 361.435 360.292 360.588 360.292 360.588Z" fill="url(#paint58_linear_255_2)"/>
<path d="M397.464 366.208L396.425 374.806C396.425 374.806 395.808 374.826 393.996 374.293C392.185 373.76 395.786 366.169 395.786 366.169" fill="#D9E3C2"/>
<path d="M457.778 297.087C457.778 297.087 462.644 302.542 461.15 310.536C459.656 318.531 458.649 342.915 459.636 347.762C460.624 352.608 459.651 355.639 459.651 355.639H463.261" stroke="#D9E3C2" stroke-width="1.83127" stroke-miterlimit="10" stroke-dasharray="3.66 3.66"/>
<path d="M403.421 338.543C403.421 338.543 380.257 345.865 373.85 344.154C367.444 342.448 361.804 350.634 361.285 353.137C359.34 352.597 357.519 351.981 355.836 351.326C355.979 350.502 356.06 349.715 356.079 348.96C356.217 342.588 358.329 338.399 366.347 338.019C372.701 337.715 392.203 338.798 403.421 338.543Z" fill="url(#paint59_linear_255_2)"/>
<path d="M273.533 85.8212V97.8131H282.114L273.533 85.8212Z" fill="url(#paint60_linear_255_2)"/>
<path d="M296.572 99.544L291.014 99.6359L280.365 99.8118C275.598 96.0823 273.691 85.6893 273.691 85.6893L278.996 85.6054L290.695 85.4215C290.537 90.2182 296.572 99.544 296.572 99.544Z" fill="#E0E4CE"/>
<path d="M282.271 118.199L279.93 118.287L277.242 118.387L274.963 118.475L271.626 118.599V106.607L278.353 107.499L280.684 107.806L282.271 118.199Z" fill="#858A00"/>
<path d="M307.384 126.194L289.264 126.594L289.102 124.995L287.677 110.736L301.659 110.94L306.106 111.004L307.384 126.194Z" fill="#AF4F55"/>
<path d="M277.009 114.402L277.243 118.387L274.964 118.475V114.202L277.009 114.402Z" fill="#AF4F55"/>
<path d="M282.272 118.199L279.931 118.287L278.353 107.499L280.684 107.806L282.272 118.199Z" fill="#AF4F55"/>
<path d="M282.271 118.199L279.93 118.287L277.242 118.387L274.963 118.475L271.626 118.599V106.607L278.353 107.499L280.684 107.806L282.271 118.199Z" fill="url(#paint61_linear_255_2)"/>
<path d="M291.014 99.6347L280.364 99.8106C275.597 96.0811 273.691 85.6882 273.691 85.6882L278.996 85.6042C279.883 89.2298 282.724 96.9845 291.014 99.6347Z" fill="url(#paint62_linear_255_2)"/>
<path d="M307.384 126.194L289.264 126.594L289.102 124.995H300.586L300.705 123.396H294.508V121.397H301.659V110.94L306.106 111.004L307.384 126.194Z" fill="url(#paint63_linear_255_2)"/>
<path d="M298.918 113.103C295.592 112.897 292.156 114.246 291.733 117.297C291.304 120.397 293.937 122.819 297.417 123.474C300.662 124.085 304.075 122.64 304.438 119.711C304.736 117.313 302.613 113.302 299.276 113.302C298.322 113.302 298.322 114.501 299.276 114.501C301.659 114.501 303.126 117.767 303.045 119.409C302.91 122.173 299.539 122.759 296.908 122.12C294.507 121.537 293.012 119.63 293.138 117.587C293.296 115.036 296.338 114.141 298.926 114.301C299.846 114.359 299.832 113.16 298.918 113.103Z" fill="#B0C8BE"/>
<path d="M294.509 117C294.509 117 294.509 117 294.509 117.4C294.509 118.199 295.939 118.199 295.939 117.4C295.939 117 295.939 117 295.939 117C295.939 116.201 294.509 116.201 294.509 117C294.509 116.201 294.509 117 294.509 117Z" fill="#B0C8BE"/>
<path d="M299.749 117.218C299.915 117.294 299.997 117.363 300.088 117.502C300.274 117.789 300.737 117.879 301.066 117.718C301.41 117.549 301.509 117.184 301.323 116.897C301.129 116.6 300.826 116.345 300.47 116.182C300.128 116.026 299.693 116.11 299.492 116.398C299.3 116.673 299.407 117.062 299.749 117.218Z" fill="#B0C8BE"/>
<path d="M296.921 120.922C297.953 120.118 299.554 119.854 300.822 120.416C301.636 120.778 302.359 119.742 301.544 119.381C299.694 118.56 297.426 118.894 295.91 120.074C295.233 120.601 296.247 121.447 296.921 120.922Z" fill="#B0C8BE"/>
<path d="M278.434 89.8185L279.254 91.8172H289.264L287.677 88.8556L278.434 89.8185Z" stroke="#342E4F" stroke-width="1.83127" stroke-miterlimit="10"/>
<path opacity="0.5" d="M280.391 94.2155L282.271 97.8131H291.171L289.264 93.8158L280.391 94.2155Z" fill="url(#paint64_linear_255_2)"/>
<path opacity="0.7" d="M301.981 108.339L309.922 116.201L308.81 115.002L308.969 116.401L307.384 116.105L308.492 117.797L299.397 109.672L301.416 109.805L301.981 108.339Z" fill="url(#paint65_linear_255_2)"/>
<path d="M96.1868 252.019C114.549 252.019 129.435 239.537 129.435 224.139C129.435 208.742 114.549 196.26 96.1868 196.26C77.8245 196.26 62.9388 208.742 62.9388 224.139C62.9388 239.537 77.8245 252.019 96.1868 252.019Z" fill="#EF703F"/>
<path d="M129.435 224.139C129.435 237.264 118.619 248.267 104.06 251.229C101.852 251.68 99.5647 251.948 97.2084 252.006C96.869 252.015 96.5267 252.019 96.1868 252.019C77.8238 252.019 62.9388 239.537 62.9388 224.139C62.9388 208.741 77.8238 196.26 96.1868 196.26C104.906 196.26 112.837 199.074 118.769 203.674C123.748 207.541 127.317 212.676 128.744 218.461C129.196 220.294 129.435 222.194 129.435 224.139Z" fill="url(#paint66_linear_255_2)"/>
<path d="M129.435 224.139C129.435 237.264 120.349 248.267 108.121 251.229C106.266 251.68 104.345 251.948 102.365 252.006C102.079 252.015 101.793 252.019 101.506 252.019C86.0827 252.019 73.5783 239.537 73.5783 224.139C73.5783 208.741 86.0822 196.26 101.506 196.26C108.83 196.26 115.492 199.074 120.476 203.674C124.657 207.541 127.656 212.676 128.854 218.461C129.234 220.294 129.435 222.194 129.435 224.139Z" fill="url(#paint67_linear_255_2)"/>
<path opacity="0.2" d="M129.435 224.139C129.435 237.264 118.619 248.267 104.059 251.229C103.608 249.396 103.368 247.496 103.368 245.551C103.368 232.427 114.178 221.423 128.743 218.461C129.195 220.294 129.435 222.194 129.435 224.139Z" fill="url(#paint68_linear_255_2)"/>
<defs>
<linearGradient id="paint0_linear_255_2" x1="168.513" y1="260.844" x2="144.473" y2="164.188" gradientUnits="userSpaceOnUse">
<stop stop-color="#EE782C" stop-opacity="0"/>
<stop offset="1" stop-color="#EE782C"/>
</linearGradient>
<linearGradient id="paint1_linear_255_2" x1="187.156" y1="237.582" x2="278.862" y2="163.334" gradientUnits="userSpaceOnUse">
<stop stop-color="#F2F2F2" stop-opacity="0"/>
<stop offset="1" stop-color="#F2F2F2"/>
</linearGradient>
<linearGradient id="paint2_linear_255_2" x1="433.396" y1="124.734" x2="460.828" y2="200.228" gradientUnits="userSpaceOnUse">
<stop stop-color="#575581" stop-opacity="0"/>
<stop offset="1" stop-color="#130030"/>
</linearGradient>
<linearGradient id="paint3_linear_255_2" x1="458.647" y1="155.138" x2="418.177" y2="271.721" gradientUnits="userSpaceOnUse">
<stop stop-color="#F2F2F2" stop-opacity="0"/>
<stop offset="1" stop-color="#F2F2F2"/>
</linearGradient>
<linearGradient id="paint4_linear_255_2" x1="447.062" y1="114.452" x2="445.721" y2="242.372" gradientUnits="userSpaceOnUse">
<stop stop-color="#EE782C" stop-opacity="0"/>
<stop offset="1" stop-color="#EE782C"/>
</linearGradient>
<linearGradient id="paint5_linear_255_2" x1="464.204" y1="166.194" x2="402.149" y2="79.3998" gradientUnits="userSpaceOnUse">
<stop stop-color="#F2F2F2" stop-opacity="0"/>
<stop offset="1" stop-color="#F2F2F2"/>
</linearGradient>
<linearGradient id="paint6_linear_255_2" x1="260.127" y1="375.096" x2="132.427" y2="427.853" gradientUnits="userSpaceOnUse">
<stop stop-color="#F2F2F2" stop-opacity="0"/>
<stop offset="1" stop-color="#F2F2F2"/>
</linearGradient>
<linearGradient id="paint7_linear_255_2" x1="308.599" y1="366.708" x2="426.688" y2="188.867" gradientUnits="userSpaceOnUse">
<stop stop-color="#F2F2F2" stop-opacity="0"/>
<stop offset="1" stop-color="#F2F2F2"/>
</linearGradient>
<linearGradient id="paint8_linear_255_2" x1="243.565" y1="381.822" x2="379.38" y2="335.545" gradientUnits="userSpaceOnUse">
<stop stop-color="#575581" stop-opacity="0"/>
<stop offset="1" stop-color="#130030"/>
</linearGradient>
<linearGradient id="paint9_linear_255_2" x1="158.411" y1="241.153" x2="158.411" y2="119.861" gradientUnits="userSpaceOnUse">
<stop stop-color="#575581" stop-opacity="0"/>
<stop offset="1" stop-color="#130030"/>
</linearGradient>
<linearGradient id="paint10_linear_255_2" x1="289.265" y1="241.153" x2="289.265" y2="119.861" gradientUnits="userSpaceOnUse">
<stop stop-color="#575581" stop-opacity="0"/>
<stop offset="1" stop-color="#130030"/>
</linearGradient>
<linearGradient id="paint11_linear_255_2" x1="130.382" y1="208.604" x2="178.603" y2="208.604" gradientUnits="userSpaceOnUse">
<stop stop-color="#575581" stop-opacity="0"/>
<stop offset="1" stop-color="#130030"/>
</linearGradient>
<linearGradient id="paint12_linear_255_2" x1="153.83" y1="179.941" x2="183.151" y2="179.941" gradientUnits="userSpaceOnUse">
<stop stop-color="#575581" stop-opacity="0"/>
<stop offset="1" stop-color="#130030"/>
</linearGradient>
<linearGradient id="paint13_linear_255_2" x1="197.886" y1="171.137" x2="196.039" y2="200.765" gradientUnits="userSpaceOnUse">
<stop stop-color="#575581" stop-opacity="0"/>
<stop offset="1" stop-color="#130030"/>
</linearGradient>
<linearGradient id="paint14_linear_255_2" x1="226.579" y1="139.827" x2="226.579" y2="243.558" gradientUnits="userSpaceOnUse">
<stop stop-color="#575581" stop-opacity="0"/>
<stop offset="1" stop-color="#130030"/>
</linearGradient>
<linearGradient id="paint15_linear_255_2" x1="331.929" y1="139.827" x2="331.929" y2="243.558" gradientUnits="userSpaceOnUse">
<stop stop-color="#575581" stop-opacity="0"/>
<stop offset="1" stop-color="#130030"/>
</linearGradient>
<linearGradient id="paint16_linear_255_2" x1="352.714" y1="115.363" x2="415.125" y2="304.963" gradientUnits="userSpaceOnUse">
<stop stop-color="#EE782C" stop-opacity="0"/>
<stop offset="1" stop-color="#EE782C"/>
</linearGradient>
<linearGradient id="paint17_linear_255_2" x1="286.678" y1="151.068" x2="415.718" y2="325.627" gradientUnits="userSpaceOnUse">
<stop stop-color="#F2F2F2" stop-opacity="0"/>
<stop offset="1" stop-color="#F2F2F2"/>
</linearGradient>
<linearGradient id="paint18_linear_255_2" x1="271.087" y1="113.6" x2="311.114" y2="167.747" gradientUnits="userSpaceOnUse">
<stop stop-color="#F2F2F2" stop-opacity="0"/>
<stop offset="1" stop-color="#F2F2F2"/>
</linearGradient>
<linearGradient id="paint19_linear_255_2" x1="282.671" y1="140.152" x2="336.787" y2="213.356" gradientUnits="userSpaceOnUse">
<stop stop-color="#F2F2F2" stop-opacity="0"/>
<stop offset="1" stop-color="#F2F2F2"/>
</linearGradient>
<linearGradient id="paint20_linear_255_2" x1="162.256" y1="155.072" x2="246.402" y2="326.358" gradientUnits="userSpaceOnUse">
<stop stop-color="#F2F2F2" stop-opacity="0"/>
<stop offset="1" stop-color="#F2F2F2"/>
</linearGradient>
<linearGradient id="paint21_linear_255_2" x1="133.761" y1="153.84" x2="178.09" y2="213.806" gradientUnits="userSpaceOnUse">
<stop stop-color="#F2F2F2" stop-opacity="0"/>
<stop offset="1" stop-color="#F2F2F2"/>
</linearGradient>
<linearGradient id="paint22_linear_255_2" x1="161.18" y1="156.207" x2="215.493" y2="229.679" gradientUnits="userSpaceOnUse">
<stop stop-color="#F2F2F2" stop-opacity="0"/>
<stop offset="1" stop-color="#F2F2F2"/>
</linearGradient>
<linearGradient id="paint23_linear_255_2" x1="409.701" y1="193.848" x2="414.938" y2="208.839" gradientUnits="userSpaceOnUse">
<stop stop-color="#575581" stop-opacity="0"/>
<stop offset="1" stop-color="#130030"/>
</linearGradient>
<linearGradient id="paint24_linear_255_2" x1="304.498" y1="198.022" x2="356.078" y2="198.022" gradientUnits="userSpaceOnUse">
<stop stop-color="#575581" stop-opacity="0"/>
<stop offset="1" stop-color="#130030"/>
</linearGradient>
<linearGradient id="paint25_linear_255_2" x1="390.75" y1="178.737" x2="376.14" y2="213.583" gradientUnits="userSpaceOnUse">
<stop stop-color="#EE782C" stop-opacity="0"/>
<stop offset="1" stop-color="#EE782C"/>
</linearGradient>
<linearGradient id="paint26_linear_255_2" x1="443.736" y1="256.556" x2="437.347" y2="329.54" gradientUnits="userSpaceOnUse">
<stop stop-color="#575581" stop-opacity="0"/>
<stop offset="1" stop-color="#130030"/>
</linearGradient>
<linearGradient id="paint27_linear_255_2" x1="424.528" y1="212.24" x2="443.792" y2="348.465" gradientUnits="userSpaceOnUse">
<stop stop-color="#575581" stop-opacity="0"/>
<stop offset="1" stop-color="#130030"/>
</linearGradient>
<linearGradient id="paint28_linear_255_2" x1="354.726" y1="199.085" x2="379.864" y2="232.292" gradientUnits="userSpaceOnUse">
<stop stop-color="#575581" stop-opacity="0"/>
<stop offset="1" stop-color="#130030"/>
</linearGradient>
<linearGradient id="paint29_linear_255_2" x1="164.521" y1="357.222" x2="173.733" y2="376.608" gradientUnits="userSpaceOnUse">
<stop stop-color="#575581" stop-opacity="0"/>
<stop offset="1" stop-color="#130030"/>
</linearGradient>
<linearGradient id="paint30_linear_255_2" x1="415.59" y1="203.114" x2="448.22" y2="284.747" gradientUnits="userSpaceOnUse">
<stop stop-color="#575581" stop-opacity="0"/>
<stop offset="1" stop-color="#130030"/>
</linearGradient>
<linearGradient id="paint31_linear_255_2" x1="228.519" y1="180.474" x2="261.172" y2="352.055" gradientUnits="userSpaceOnUse">
<stop stop-color="#575581" stop-opacity="0"/>
<stop offset="1" stop-color="#130030"/>
</linearGradient>
<linearGradient id="paint32_linear_255_2" x1="173.374" y1="278.912" x2="372.215" y2="278.912" gradientUnits="userSpaceOnUse">
<stop stop-color="#575581" stop-opacity="0"/>
<stop offset="1" stop-color="#130030"/>
</linearGradient>
<linearGradient id="paint33_linear_255_2" x1="173.374" y1="323.98" x2="261.706" y2="323.98" gradientUnits="userSpaceOnUse">
<stop stop-color="#575581" stop-opacity="0"/>
<stop offset="1" stop-color="#130030"/>
</linearGradient>
<linearGradient id="paint34_linear_255_2" x1="421.493" y1="162.489" x2="332.667" y2="139.073" gradientUnits="userSpaceOnUse">
<stop stop-color="#F2F2F2" stop-opacity="0"/>
<stop offset="1" stop-color="#F2F2F2"/>
</linearGradient>
<linearGradient id="paint35_linear_255_2" x1="413.35" y1="196.651" x2="435.22" y2="251.366" gradientUnits="userSpaceOnUse">
<stop stop-color="#575581" stop-opacity="0"/>
<stop offset="1" stop-color="#130030"/>
</linearGradient>
<linearGradient id="paint36_linear_255_2" x1="423.941" y1="191.573" x2="390.07" y2="198.866" gradientUnits="userSpaceOnUse">
<stop stop-color="#F2F2F2" stop-opacity="0"/>
<stop offset="1" stop-color="#F2F2F2"/>
</linearGradient>
<linearGradient id="paint37_linear_255_2" x1="450.173" y1="194.196" x2="438.732" y2="167.762" gradientUnits="userSpaceOnUse">
<stop stop-color="#F2F2F2" stop-opacity="0"/>
<stop offset="1" stop-color="#F2F2F2"/>
</linearGradient>
<linearGradient id="paint38_linear_255_2" x1="395.821" y1="246.27" x2="406.372" y2="320.886" gradientUnits="userSpaceOnUse">
<stop stop-color="#575581" stop-opacity="0"/>
<stop offset="1" stop-color="#130030"/>
</linearGradient>
<linearGradient id="paint39_linear_255_2" x1="247.532" y1="128.106" x2="285.888" y2="246.202" gradientUnits="userSpaceOnUse">
<stop stop-color="#EE782C" stop-opacity="0"/>
<stop offset="1" stop-color="#EE782C"/>
</linearGradient>
<linearGradient id="paint40_linear_255_2" x1="181.955" y1="370.063" x2="224.208" y2="347.255" gradientUnits="userSpaceOnUse">
<stop stop-color="#575581" stop-opacity="0"/>
<stop offset="1" stop-color="#130030"/>
</linearGradient>
<linearGradient id="paint41_linear_255_2" x1="193.877" y1="297.673" x2="327.877" y2="297.673" gradientUnits="userSpaceOnUse">
<stop stop-color="#575581" stop-opacity="0"/>
<stop offset="1" stop-color="#130030"/>
</linearGradient>
<linearGradient id="paint42_linear_255_2" x1="334.499" y1="292.252" x2="457.073" y2="292.252" gradientUnits="userSpaceOnUse">
<stop stop-color="#575581" stop-opacity="0"/>
<stop offset="1" stop-color="#130030"/>
</linearGradient>
<linearGradient id="paint43_linear_255_2" x1="196.684" y1="294.442" x2="425.772" y2="294.442" gradientUnits="userSpaceOnUse">
<stop stop-color="#575581" stop-opacity="0"/>
<stop offset="1" stop-color="#130030"/>
</linearGradient>
<linearGradient id="paint44_linear_255_2" x1="206.671" y1="258.403" x2="327.873" y2="258.403" gradientUnits="userSpaceOnUse">
<stop stop-color="#F2F2F2" stop-opacity="0"/>
<stop offset="1" stop-color="#F2F2F2"/>
</linearGradient>
<linearGradient id="paint45_linear_255_2" x1="505.034" y1="398.34" x2="453.377" y2="322.242" gradientUnits="userSpaceOnUse">
<stop stop-color="#575581" stop-opacity="0"/>
<stop offset="1" stop-color="#130030"/>
</linearGradient>
<linearGradient id="paint46_linear_255_2" x1="442.189" y1="313.435" x2="458.109" y2="412.808" gradientUnits="userSpaceOnUse">
<stop stop-color="#F2F2F2" stop-opacity="0"/>
<stop offset="1" stop-color="#F2F2F2"/>
</linearGradient>
<linearGradient id="paint47_linear_255_2" x1="410.938" y1="318.623" x2="405.568" y2="409.627" gradientUnits="userSpaceOnUse">
<stop stop-color="#575581" stop-opacity="0"/>
<stop offset="1" stop-color="#130030"/>
</linearGradient>
<linearGradient id="paint48_linear_255_2" x1="400.128" y1="309.859" x2="396.184" y2="376.682" gradientUnits="userSpaceOnUse">
<stop stop-color="#575581" stop-opacity="0"/>
<stop offset="1" stop-color="#130030"/>
</linearGradient>
<linearGradient id="paint49_linear_255_2" x1="393.431" y1="313.528" x2="476.642" y2="281.543" gradientUnits="userSpaceOnUse">
<stop stop-color="#EE782C" stop-opacity="0"/>
<stop offset="1" stop-color="#EE782C"/>
</linearGradient>
<linearGradient id="paint50_linear_255_2" x1="292.299" y1="336.75" x2="287.574" y2="373.378" gradientUnits="userSpaceOnUse">
<stop stop-color="#575581" stop-opacity="0"/>
<stop offset="1" stop-color="#130030"/>
</linearGradient>
<linearGradient id="paint51_linear_255_2" x1="317.679" y1="343.646" x2="312.166" y2="386.382" gradientUnits="userSpaceOnUse">
<stop stop-color="#575581" stop-opacity="0"/>
<stop offset="1" stop-color="#130030"/>
</linearGradient>
<linearGradient id="paint52_linear_255_2" x1="272.739" y1="360.273" x2="290.933" y2="360.273" gradientUnits="userSpaceOnUse">
<stop stop-color="#575581" stop-opacity="0"/>
<stop offset="1" stop-color="#130030"/>
</linearGradient>
<linearGradient id="paint53_linear_255_2" x1="432.971" y1="394.491" x2="404.247" y2="352.176" gradientUnits="userSpaceOnUse">
<stop stop-color="#575581" stop-opacity="0"/>
<stop offset="1" stop-color="#130030"/>
</linearGradient>
<linearGradient id="paint54_linear_255_2" x1="400.638" y1="324.381" x2="394.497" y2="315.334" gradientUnits="userSpaceOnUse">
<stop stop-color="#575581" stop-opacity="0"/>
<stop offset="1" stop-color="#130030"/>
</linearGradient>
<linearGradient id="paint55_linear_255_2" x1="409.603" y1="324.584" x2="404.169" y2="316.579" gradientUnits="userSpaceOnUse">
<stop stop-color="#575581" stop-opacity="0"/>
<stop offset="1" stop-color="#130030"/>
</linearGradient>
<linearGradient id="paint56_linear_255_2" x1="445.98" y1="286.21" x2="445.065" y2="301.709" gradientUnits="userSpaceOnUse">
<stop stop-color="#575581" stop-opacity="0"/>
<stop offset="1" stop-color="#130030"/>
</linearGradient>
<linearGradient id="paint57_linear_255_2" x1="378.468" y1="367.459" x2="377.087" y2="390.864" gradientUnits="userSpaceOnUse">
<stop stop-color="#575581" stop-opacity="0"/>
<stop offset="1" stop-color="#130030"/>
</linearGradient>
<linearGradient id="paint58_linear_255_2" x1="380.958" y1="361.18" x2="380.571" y2="367.741" gradientUnits="userSpaceOnUse">
<stop stop-color="#575581" stop-opacity="0"/>
<stop offset="1" stop-color="#130030"/>
</linearGradient>
<linearGradient id="paint59_linear_255_2" x1="370.751" y1="343.475" x2="429.773" y2="320.788" gradientUnits="userSpaceOnUse">
<stop stop-color="#EE782C" stop-opacity="0"/>
<stop offset="1" stop-color="#EE782C"/>
</linearGradient>
<linearGradient id="paint60_linear_255_2" x1="278.992" y1="88.6337" x2="274.863" y2="104.634" gradientUnits="userSpaceOnUse">
<stop stop-color="#575581" stop-opacity="0"/>
<stop offset="1" stop-color="#130030"/>
</linearGradient>
<linearGradient id="paint61_linear_255_2" x1="276.949" y1="102.61" x2="276.949" y2="146.58" gradientUnits="userSpaceOnUse">
<stop stop-color="#575581" stop-opacity="0"/>
<stop offset="1" stop-color="#130030"/>
</linearGradient>
<linearGradient id="paint62_linear_255_2" x1="287.598" y1="99.243" x2="271.02" y2="79.7863" gradientUnits="userSpaceOnUse">
<stop stop-color="#575581" stop-opacity="0"/>
<stop offset="1" stop-color="#130030"/>
</linearGradient>
<linearGradient id="paint63_linear_255_2" x1="295.575" y1="115.07" x2="307.097" y2="144.03" gradientUnits="userSpaceOnUse">
<stop stop-color="#575581" stop-opacity="0"/>
<stop offset="1" stop-color="#130030"/>
</linearGradient>
<linearGradient id="paint64_linear_255_2" x1="280.39" y1="95.8144" x2="291.171" y2="95.8144" gradientUnits="userSpaceOnUse">
<stop stop-color="#F2F2F2" stop-opacity="0"/>
<stop offset="1" stop-color="#F2F2F2"/>
</linearGradient>
<linearGradient id="paint65_linear_255_2" x1="304.144" y1="102.345" x2="304.591" y2="115.41" gradientUnits="userSpaceOnUse">
<stop stop-color="#F2F2F2" stop-opacity="0"/>
<stop offset="1" stop-color="#F2F2F2"/>
</linearGradient>
<linearGradient id="paint66_linear_255_2" x1="62.9387" y1="224.14" x2="129.435" y2="224.14" gradientUnits="userSpaceOnUse">
<stop stop-color="#575581" stop-opacity="0"/>
<stop offset="1" stop-color="#575581"/>
</linearGradient>
<linearGradient id="paint67_linear_255_2" x1="117.133" y1="176.008" x2="79.7094" y2="339.952" gradientUnits="userSpaceOnUse">
<stop stop-color="#575581" stop-opacity="0"/>
<stop offset="1" stop-color="#575581"/>
</linearGradient>
<linearGradient id="paint68_linear_255_2" x1="146.32" y1="163.762" x2="90.6264" y2="351.945" gradientUnits="userSpaceOnUse">
<stop stop-color="#F2F2F2" stop-opacity="0"/>
<stop offset="1" stop-color="#F2F2F2"/>
</linearGradient>
</defs>
</svg>
