<svg width="1504" height="764" viewBox="0 0 1504 764" fill="none" xmlns="http://www.w3.org/2000/svg">
<g filter="url(#filter0_d_259_272)">
<path fill-rule="evenodd" clip-rule="evenodd" d="M92 105.52L32 124.533V378.472V385.528V677.493L92 670.579C152 664.529 272 652.43 392 658.48C483.034 663.069 574.067 678.6 665.101 694.132C694.067 699.074 723.034 704.016 752 708.605C872 726.753 992 739.717 1112 726.753C1232 714.654 1352 677.493 1412 658.48L1472 639.467V385.528V378.472V86.5075L1412 93.4212L1412 93.4214C1352 99.4709 1232 111.57 1112 105.52C1020.97 100.931 929.931 85.3996 838.896 69.8683C809.931 64.9265 780.965 59.9847 752 55.3954C632 37.2468 512 24.2834 392 37.2467C272 49.3459 152 86.5075 92 105.52Z" fill="#2E8544" fill-opacity="0.85" shape-rendering="crispEdges"/>
</g>
<defs>
<filter id="filter0_d_259_272" x="0" y="0" width="1504" height="764" filterUnits="userSpaceOnUse" color-interpolation-filters="sRGB">
<feFlood flood-opacity="0" result="BackgroundImageFix"/>
<feColorMatrix in="SourceAlpha" type="matrix" values="0 0 0 0 0 0 0 0 0 0 0 0 0 0 0 0 0 0 127 0" result="hardAlpha"/>
<feOffset/>
<feGaussianBlur stdDeviation="16"/>
<feComposite in2="hardAlpha" operator="out"/>
<feColorMatrix type="matrix" values="0 0 0 0 0 0 0 0 0 0 0 0 0 0 0 0 0 0 0.3 0"/>
<feBlend mode="normal" in2="BackgroundImageFix" result="effect1_dropShadow_259_272"/>
<feBlend mode="normal" in="SourceGraphic" in2="effect1_dropShadow_259_272" result="shape"/>
</filter>
</defs>
</svg>
